IbarraReal-Regular.ufo
<glyph name="ampersand" format="2">
  <advance width="778"/>
  <unicode hex="0026"/>
  <outline>
    <contour>
      <point x="325" y="-13" type="curve" smooth="yes"/>
      <point x="486" y="-13"/>
      <point x="633" y="87"/>
      <point x="633" y="281" type="curve" smooth="yes"/>
      <point x="633" y="299" type="line" smooth="yes"/>
      <point x="633" y="341"/>
      <point x="642" y="348"/>
      <point x="697" y="358" type="curve" smooth="yes"/>
      <point x="758" y="369" type="line"/>
      <point x="758" y="387" type="line"/>
      <point x="418" y="387" type="line"/>
      <point x="418" y="369" type="line"/>
      <point x="479" y="358" type="line" smooth="yes"/>
      <point x="534" y="348"/>
      <point x="543" y="341"/>
      <point x="543" y="299" type="curve" smooth="yes"/>
      <point x="543" y="281" type="line" smooth="yes"/>
      <point x="543" y="87"/>
      <point x="443" y="15"/>
      <point x="327" y="15" type="curve" smooth="yes"/>
      <point x="225" y="15"/>
      <point x="143" y="82"/>
      <point x="143" y="206" type="curve" smooth="yes"/>
      <point x="143" y="306"/>
      <point x="209" y="378"/>
      <point x="292" y="394" type="curve"/>
      <point x="342" y="387" type="line"/>
      <point x="350" y="404" type="line"/>
      <point x="317" y="416" type="line" smooth="yes"/>
      <point x="245" y="442"/>
      <point x="216" y="485"/>
      <point x="216" y="545" type="curve" smooth="yes"/>
      <point x="216" y="611"/>
      <point x="247" y="651"/>
      <point x="309" y="651" type="curve" smooth="yes"/>
      <point x="350" y="651"/>
      <point x="390" y="637"/>
      <point x="390" y="609" type="curve" smooth="yes"/>
      <point x="390" y="604"/>
      <point x="386" y="601"/>
      <point x="382" y="596" type="curve"/>
      <point x="375" y="589"/>
      <point x="366" y="579"/>
      <point x="366" y="555" type="curve" smooth="yes"/>
      <point x="366" y="529"/>
      <point x="387" y="511"/>
      <point x="414" y="511" type="curve" smooth="yes"/>
      <point x="437" y="511"/>
      <point x="460" y="527"/>
      <point x="460" y="563" type="curve" smooth="yes"/>
      <point x="460" y="640"/>
      <point x="380" y="679"/>
      <point x="297" y="679" type="curve" smooth="yes"/>
      <point x="191" y="679"/>
      <point x="129" y="626"/>
      <point x="129" y="554" type="curve" smooth="yes"/>
      <point x="129" y="490"/>
      <point x="161" y="459"/>
      <point x="228" y="430" type="curve"/>
      <point x="228" y="427" type="line"/>
      <point x="112" y="413"/>
      <point x="55" y="321"/>
      <point x="55" y="234" type="curve" smooth="yes"/>
      <point x="55" y="69"/>
      <point x="179" y="-13"/>
    </contour>
  </outline>
</glyph>
<glyph name="asterisk" format="2">
  <advance width="409"/>
  <unicode hex="002A"/>
  <outline>
    <contour>
      <point x="319" y="409" type="curve" smooth="yes"/>
      <point x="342" y="396"/>
      <point x="363" y="415"/>
      <point x="369" y="426" type="curve" smooth="yes"/>
      <point x="375" y="437"/>
      <point x="381" y="465"/>
      <point x="358" y="478" type="curve" smooth="yes"/>
      <point x="342" y="487"/>
      <point x="321" y="491"/>
      <point x="298" y="495" type="curve" smooth="yes"/>
      <point x="272" y="501"/>
      <point x="244" y="507"/>
      <point x="214" y="524" type="curve" smooth="yes"/>
      <point x="202" y="531" type="line" smooth="yes"/>
      <point x="173" y="548"/>
      <point x="154" y="569"/>
      <point x="135" y="589" type="curve" smooth="yes"/>
      <point x="120" y="607"/>
      <point x="106" y="623"/>
      <point x="90" y="633" type="curve" smooth="yes"/>
      <point x="67" y="646"/>
      <point x="46" y="627"/>
      <point x="40" y="616" type="curve" smooth="yes"/>
      <point x="34" y="605"/>
      <point x="28" y="577"/>
      <point x="51" y="564" type="curve" smooth="yes"/>
      <point x="67" y="555"/>
      <point x="88" y="551"/>
      <point x="111" y="547" type="curve" smooth="yes"/>
      <point x="137" y="541"/>
      <point x="165" y="535"/>
      <point x="195" y="518" type="curve" smooth="yes"/>
      <point x="207" y="511" type="line" smooth="yes"/>
      <point x="236" y="494"/>
      <point x="255" y="473"/>
      <point x="274" y="453" type="curve" smooth="yes"/>
      <point x="289" y="435"/>
      <point x="303" y="419"/>
    </contour>
    <contour>
      <point x="91" y="410" type="curve" smooth="yes"/>
      <point x="106" y="419"/>
      <point x="120" y="435"/>
      <point x="135" y="453" type="curve" smooth="yes"/>
      <point x="153" y="473"/>
      <point x="173" y="494"/>
      <point x="202" y="511" type="curve" smooth="yes"/>
      <point x="214" y="518" type="line" smooth="yes"/>
      <point x="244" y="535"/>
      <point x="271" y="541"/>
      <point x="298" y="547" type="curve" smooth="yes"/>
      <point x="321" y="551"/>
      <point x="342" y="555"/>
      <point x="359" y="564" type="curve" smooth="yes"/>
      <point x="382" y="578"/>
      <point x="376" y="605"/>
      <point x="369" y="616" type="curve" smooth="yes"/>
      <point x="362" y="627"/>
      <point x="341" y="646"/>
      <point x="318" y="632" type="curve" smooth="yes"/>
      <point x="303" y="623"/>
      <point x="289" y="607"/>
      <point x="274" y="589" type="curve" smooth="yes"/>
      <point x="256" y="569"/>
      <point x="236" y="548"/>
      <point x="207" y="531" type="curve" smooth="yes"/>
      <point x="195" y="524" type="line" smooth="yes"/>
      <point x="165" y="507"/>
      <point x="138" y="501"/>
      <point x="111" y="495" type="curve" smooth="yes"/>
      <point x="88" y="491"/>
      <point x="67" y="487"/>
      <point x="50" y="478" type="curve" smooth="yes"/>
      <point x="27" y="464"/>
      <point x="33" y="437"/>
      <point x="40" y="426" type="curve" smooth="yes"/>
      <point x="47" y="415"/>
      <point x="68" y="396"/>
    </contour>
    <contour>
      <point x="205" y="331" type="curve" smooth="yes"/>
      <point x="217" y="331"/>
      <point x="244" y="340"/>
      <point x="244" y="366" type="curve" smooth="yes"/>
      <point x="244" y="385"/>
      <point x="237" y="405"/>
      <point x="229" y="427" type="curve" smooth="yes"/>
      <point x="221" y="453"/>
      <point x="212" y="480"/>
      <point x="212" y="514" type="curve" smooth="yes"/>
      <point x="212" y="528" type="line" smooth="yes"/>
      <point x="212" y="562"/>
      <point x="221" y="589"/>
      <point x="229" y="615" type="curve" smooth="yes"/>
      <point x="237" y="637"/>
      <point x="244" y="657"/>
      <point x="244" y="676" type="curve" smooth="yes"/>
      <point x="244" y="702"/>
      <point x="217" y="711"/>
      <point x="204" y="711" type="curve" smooth="yes"/>
      <point x="192" y="711"/>
      <point x="165" y="702"/>
      <point x="165" y="676" type="curve" smooth="yes"/>
      <point x="165" y="657"/>
      <point x="172" y="637"/>
      <point x="180" y="615" type="curve" smooth="yes"/>
      <point x="188" y="589"/>
      <point x="197" y="562"/>
      <point x="197" y="528" type="curve" smooth="yes"/>
      <point x="197" y="514" type="line" smooth="yes"/>
      <point x="197" y="480"/>
      <point x="188" y="453"/>
      <point x="180" y="427" type="curve" smooth="yes"/>
      <point x="172" y="405"/>
      <point x="165" y="385"/>
      <point x="165" y="366" type="curve" smooth="yes"/>
      <point x="165" y="340"/>
      <point x="192" y="331"/>
    </contour>
  </outline>
</glyph>
<glyph name="plus" format="2">
  <advance width="530"/>
  <unicode hex="002B"/>
  <outline>
    <contour>
      <point x="246" y="148" type="line"/>
      <point x="284" y="148" type="line"/>
      <point x="284" y="316" type="line"/>
      <point x="457" y="316" type="line"/>
      <point x="457" y="354" type="line"/>
      <point x="284" y="354" type="line"/>
      <point x="284" y="521" type="line"/>
      <point x="246" y="521" type="line"/>
      <point x="246" y="354" type="line"/>
      <point x="73" y="354" type="line"/>
      <point x="73" y="316" type="line"/>
      <point x="246" y="316" type="line"/>
    </contour>
  </outline>
</glyph>
<glyph name="hyphen" format="2">
  <advance width="265"/>
  <unicode hex="002D"/>
  <outline>
    <contour>
      <point x="20" y="315" type="line"/>
      <point x="20" y="255" type="line"/>
      <point x="245" y="255" type="line"/>
      <point x="245" y="315" type="line"/>
    </contour>
  </outline>
</glyph>
<glyph name="seven" format="2">
  <advance width="470"/>
  <unicode hex="0037"/>
  <outline>
    <contour>
      <point x="109" y="0" type="line"/>
      <point x="210" y="0" type="line"/>
      <point x="440" y="615" type="line"/>
      <point x="440" y="674" type="line"/>
      <point x="47" y="674" type="line"/>
      <point x="25" y="527" type="line"/>
      <point x="41" y="527" type="line"/>
      <point x="58" y="569" type="line" smooth="yes"/>
      <point x="65" y="586"/>
      <point x="78" y="594"/>
      <point x="91" y="594" type="curve" smooth="yes"/>
      <point x="390" y="594" type="line"/>
    </contour>
  </outline>
</glyph>
<glyph name="J" format="2">
  <advance width="415"/>
  <unicode hex="004A"/>
  <anchor x="220" y="690" name="topcase"/>
  <outline>
    <contour>
      <point x="72" y="-178" type="curve" smooth="yes"/>
      <point x="158" y="-178"/>
      <point x="195" y="-127"/>
      <point x="218" y="-86" type="curve" smooth="yes"/>
      <point x="234" y="-58"/>
      <point x="245" y="-35"/>
      <point x="261" y="-35" type="curve" smooth="yes"/>
      <point x="265" y="-35" type="line"/>
      <point x="265" y="585" type="line" smooth="yes"/>
      <point x="265" y="627"/>
      <point x="274" y="634"/>
      <point x="329" y="644" type="curve" smooth="yes"/>
      <point x="390" y="655" type="line"/>
      <point x="390" y="673" type="line"/>
      <point x="50" y="673" type="line"/>
      <point x="50" y="655" type="line"/>
      <point x="111" y="644" type="line" smooth="yes"/>
      <point x="166" y="634"/>
      <point x="175" y="627"/>
      <point x="175" y="585" type="curve" smooth="yes"/>
      <point x="175" y="-21" type="line" smooth="yes"/>
      <point x="175" y="-120"/>
      <point x="132" y="-154"/>
      <point x="77" y="-154" type="curve" smooth="yes"/>
      <point x="47" y="-154"/>
      <point x="23" y="-140"/>
      <point x="23" y="-129" type="curve" smooth="yes"/>
      <point x="23" y="-128"/>
      <point x="24" y="-127"/>
      <point x="29" y="-127" type="curve" smooth="yes"/>
      <point x="56" y="-127"/>
      <point x="75" y="-101"/>
      <point x="75" y="-75" type="curve" smooth="yes"/>
      <point x="75" y="-47"/>
      <point x="57" y="-19"/>
      <point x="21" y="-19" type="curve" smooth="yes"/>
      <point x="-7" y="-19"/>
      <point x="-35" y="-38"/>
      <point x="-35" y="-77" type="curve" smooth="yes"/>
      <point x="-35" y="-123"/>
      <point x="10" y="-178"/>
    </contour>
  </outline>
</glyph>
<glyph name="N" format="2">
  <advance width="856"/>
  <unicode hex="004E"/>
  <anchor x="443" y="690" name="topcase"/>
  <outline>
    <contour>
      <point x="696" y="-16" type="line"/>
      <point x="706" y="-16" type="line"/>
      <point x="706" y="581" type="line" smooth="yes"/>
      <point x="706" y="623"/>
      <point x="715" y="634"/>
      <point x="770" y="644" type="curve" smooth="yes"/>
      <point x="831" y="655" type="line"/>
      <point x="831" y="673" type="line"/>
      <point x="552" y="673" type="line"/>
      <point x="552" y="655" type="line"/>
      <point x="613" y="644" type="line" smooth="yes"/>
      <point x="668" y="634"/>
      <point x="677" y="620"/>
      <point x="677" y="578" type="curve" smooth="yes"/>
      <point x="678" y="153" type="line"/>
      <point x="211" y="673" type="line"/>
      <point x="40" y="673" type="line"/>
      <point x="40" y="656" type="line"/>
      <point x="87" y="647" type="line" smooth="yes"/>
      <point x="162" y="633"/>
      <point x="166" y="624"/>
      <point x="166" y="578" type="curve" smooth="yes"/>
      <point x="166" y="92" type="line" smooth="yes"/>
      <point x="166" y="50"/>
      <point x="157" y="39"/>
      <point x="102" y="29" type="curve" smooth="yes"/>
      <point x="41" y="18" type="line"/>
      <point x="41" y="0" type="line"/>
      <point x="320" y="0" type="line"/>
      <point x="320" y="18" type="line"/>
      <point x="259" y="29" type="line" smooth="yes"/>
      <point x="204" y="39"/>
      <point x="195" y="53"/>
      <point x="195" y="95" type="curve" smooth="yes"/>
      <point x="195" y="556" type="line"/>
    </contour>
  </outline>
</glyph>
<glyph name="P" format="2">
  <advance width="670"/>
  <unicode hex="0050"/>
  <outline>
    <contour>
      <point x="41" y="0" type="line"/>
      <point x="381" y="0" type="line"/>
      <point x="381" y="18" type="line"/>
      <point x="320" y="29" type="line" smooth="yes"/>
      <point x="265" y="39"/>
      <point x="256" y="46"/>
      <point x="256" y="88" type="curve" smooth="yes"/>
      <point x="256" y="649" type="line"/>
      <point x="342" y="649" type="line" smooth="yes"/>
      <point x="457" y="649"/>
      <point x="527" y="603"/>
      <point x="527" y="486" type="curve" smooth="yes"/>
      <point x="527" y="365"/>
      <point x="447" y="322"/>
      <point x="354" y="317" type="curve"/>
      <point x="353" y="310" type="line"/>
      <point x="451" y="283"/>
      <point x="630" y="337"/>
      <point x="630" y="486" type="curve" smooth="yes"/>
      <point x="630" y="597"/>
      <point x="522" y="673"/>
      <point x="358" y="673" type="curve" smooth="yes"/>
      <point x="40" y="673" type="line"/>
      <point x="40" y="655" type="line"/>
      <point x="85" y="647" type="line" smooth="yes"/>
      <point x="158" y="634"/>
      <point x="166" y="632"/>
      <point x="166" y="572" type="curve" smooth="yes"/>
      <point x="166" y="88" type="line" smooth="yes"/>
      <point x="166" y="46"/>
      <point x="157" y="39"/>
      <point x="102" y="29" type="curve" smooth="yes"/>
      <point x="41" y="18" type="line"/>
    </contour>
  </outline>
</glyph>
<glyph name="Q" format="2">
  <advance width="804"/>
  <unicode hex="0051"/>
  <outline>
    <contour>
      <point x="507" y="9" type="curve"/>
      <point x="374" y="-7" type="line"/>
      <point x="511" y="-120"/>
      <point x="630" y="-150"/>
      <point x="748" y="-150" type="curve" smooth="yes"/>
      <point x="801" y="-150"/>
      <point x="844" y="-146"/>
      <point x="889" y="-137" type="curve"/>
      <point x="883" y="-121" type="line"/>
      <point x="748" y="-121"/>
      <point x="532" y="-36"/>
    </contour>
    <component base="O"/>
  </outline>
</glyph>
<glyph name="W" format="2">
  <advance width="1129"/>
  <unicode hex="0057"/>
  <anchor x="592" y="690" name="topcase"/>
  <outline>
    <contour>
      <point x="352" y="-9" type="line"/>
      <point x="359" y="-9" type="line"/>
      <point x="565" y="535" type="line"/>
      <point x="757" y="-9" type="line"/>
      <point x="764" y="-9" type="line"/>
      <point x="985" y="574" type="line" smooth="yes"/>
      <point x="1002" y="619"/>
      <point x="1021" y="640"/>
      <point x="1070" y="647" type="curve" smooth="yes"/>
      <point x="1124" y="655" type="line"/>
      <point x="1124" y="673" type="line"/>
      <point x="860" y="673" type="line"/>
      <point x="860" y="655" type="line"/>
      <point x="924" y="643" type="line" smooth="yes"/>
      <point x="968" y="634"/>
      <point x="974" y="625"/>
      <point x="958" y="584" type="curve" smooth="yes"/>
      <point x="791" y="152" type="line"/>
      <point x="635" y="577" type="line" smooth="yes"/>
      <point x="619" y="622"/>
      <point x="614" y="633"/>
      <point x="667" y="643" type="curve" smooth="yes"/>
      <point x="734" y="655" type="line"/>
      <point x="734" y="673" type="line"/>
      <point x="455" y="673" type="line"/>
      <point x="455" y="655" type="line"/>
      <point x="516" y="643" type="line" smooth="yes"/>
      <point x="568" y="632"/>
      <point x="568" y="623"/>
      <point x="549" y="574" type="curve" smooth="yes"/>
      <point x="386" y="152" type="line"/>
      <point x="227" y="584" type="line" smooth="yes"/>
      <point x="212" y="622"/>
      <point x="215" y="635"/>
      <point x="261" y="643" type="curve" smooth="yes"/>
      <point x="329" y="655" type="line"/>
      <point x="329" y="673" type="line"/>
      <point x="5" y="673" type="line"/>
      <point x="5" y="655" type="line"/>
      <point x="47" y="647" type="line" smooth="yes"/>
      <point x="96" y="638"/>
      <point x="115" y="619"/>
      <point x="132" y="574" type="curve" smooth="yes"/>
    </contour>
  </outline>
</glyph>
<glyph name="Z" format="2">
  <advance width="669"/>
  <unicode hex="005A"/>
  <guideline x="645" y="216" angle="90"/>
  <anchor x="344" y="690" name="topcase"/>
  <outline>
    <contour>
      <point x="30" y="0" type="line"/>
      <point x="619" y="0" type="line"/>
      <point x="619" y="63"/>
      <point x="628" y="122"/>
      <point x="644" y="187" type="curve"/>
      <point x="624" y="187" type="line"/>
      <point x="591" y="97"/>
      <point x="505" y="25"/>
      <point x="400" y="25" type="curve" smooth="yes"/>
      <point x="155" y="25" type="line"/>
      <point x="620" y="662" type="line"/>
      <point x="620" y="673" type="line"/>
      <point x="75" y="673" type="line"/>
      <point x="77" y="655"/>
      <point x="80" y="638"/>
      <point x="80" y="621" type="curve" smooth="yes"/>
      <point x="80" y="577"/>
      <point x="74" y="530"/>
      <point x="65" y="489" type="curve"/>
      <point x="84" y="489" type="line"/>
      <point x="125" y="596"/>
      <point x="170" y="649"/>
      <point x="275" y="649" type="curve" smooth="yes"/>
      <point x="499" y="649" type="line"/>
      <point x="30" y="11" type="line"/>
    </contour>
  </outline>
</glyph>
<glyph name="d" format="2">
  <advance width="554"/>
  <unicode hex="0064"/>
  <outline>
    <contour>
      <point x="254" y="-8" type="curve" smooth="yes"/>
      <point x="267" y="-8"/>
      <point x="282" y="-2"/>
      <point x="291" y="3" type="curve"/>
      <point x="385" y="50" type="line"/>
      <point x="389" y="50" type="line"/>
      <point x="396" y="-4" type="line"/>
      <point x="404" y="-8" type="line"/>
      <point x="447" y="-3"/>
      <point x="489" y="3"/>
      <point x="532" y="5" type="curve"/>
      <point x="532" y="24" type="line"/>
      <point x="477" y="21"/>
      <point x="448" y="34"/>
      <point x="448" y="73" type="curve" smooth="yes"/>
      <point x="448" y="602" type="line" smooth="yes"/>
      <point x="448" y="648"/>
      <point x="449" y="676"/>
      <point x="460" y="706" type="curve"/>
      <point x="451" y="712" type="line"/>
      <point x="407" y="689"/>
      <point x="350" y="678"/>
      <point x="302" y="668" type="curve"/>
      <point x="302" y="658" type="line"/>
      <point x="357" y="646" type="line" smooth="yes"/>
      <point x="375" y="642"/>
      <point x="381" y="632"/>
      <point x="381" y="606" type="curve" smooth="yes"/>
      <point x="381" y="401" type="line"/>
      <point x="356" y="419"/>
      <point x="309" y="434"/>
      <point x="258" y="434" type="curve" smooth="yes"/>
      <point x="113" y="434"/>
      <point x="45" y="317"/>
      <point x="45" y="204" type="curve" smooth="yes"/>
      <point x="45" y="93"/>
      <point x="111" y="-8"/>
    </contour>
    <contour>
      <point x="273" y="39" type="curve" smooth="yes"/>
      <point x="163" y="39"/>
      <point x="115" y="124"/>
      <point x="115" y="236" type="curve" smooth="yes"/>
      <point x="115" y="326"/>
      <point x="159" y="408"/>
      <point x="256" y="408" type="curve" smooth="yes"/>
      <point x="323" y="408"/>
      <point x="383" y="348"/>
      <point x="383" y="273" type="curve" smooth="yes"/>
      <point x="383" y="132" type="line" smooth="yes"/>
      <point x="383" y="84"/>
      <point x="338" y="39"/>
    </contour>
  </outline>
</glyph>
<glyph name="n" format="2">
  <advance width="533"/>
  <unicode hex="006E"/>
  <guideline x="143" y="58" angle="0" identifier="YnKUbAhWLq"/>
  <anchor x="269" y="470" name="top"/>
  <outline>
    <contour>
      <point x="315" y="0" type="line"/>
      <point x="518" y="0" type="line"/>
      <point x="518" y="15" type="line"/>
      <point x="476" y="26" type="line" smooth="yes"/>
      <point x="456" y="31"/>
      <point x="450" y="39"/>
      <point x="450" y="58" type="curve" smooth="yes"/>
      <point x="450" y="295" type="line" smooth="yes"/>
      <point x="450" y="385"/>
      <point x="395" y="434"/>
      <point x="301" y="434" type="curve" smooth="yes"/>
      <point x="297" y="434"/>
      <point x="291" y="432"/>
      <point x="285" y="429" type="curve" smooth="yes"/>
      <point x="252" y="412"/>
      <point x="200" y="384"/>
      <point x="168" y="371" type="curve"/>
      <point x="143" y="371" type="line"/>
      <point x="170" y="272" type="line"/>
      <point x="170" y="331"/>
      <point x="215" y="381"/>
      <point x="280" y="381" type="curve" smooth="yes"/>
      <point x="346" y="381"/>
      <point x="383" y="346"/>
      <point x="383" y="282" type="curve" smooth="yes"/>
      <point x="383" y="58" type="line" smooth="yes"/>
      <point x="383" y="39"/>
      <point x="377" y="31"/>
      <point x="357" y="26" type="curve" smooth="yes"/>
      <point x="315" y="15" type="line"/>
    </contour>
    <contour>
      <point x="35" y="0" type="line"/>
      <point x="238" y="0" type="line"/>
      <point x="238" y="15" type="line"/>
      <point x="196" y="26" type="line" smooth="yes"/>
      <point x="176" y="31"/>
      <point x="170" y="39"/>
      <point x="170" y="58" type="curve" smooth="yes"/>
      <point x="170" y="348" type="line"/>
      <point x="164" y="363" type="line"/>
      <point x="164" y="373" type="line" smooth="yes"/>
      <point x="164" y="392"/>
      <point x="169" y="414"/>
      <point x="176" y="431" type="curve"/>
      <point x="167" y="437" type="line"/>
      <point x="126" y="414"/>
      <point x="82" y="403"/>
      <point x="36" y="393" type="curve"/>
      <point x="36" y="383" type="line"/>
      <point x="79" y="371" type="line" smooth="yes"/>
      <point x="97" y="366"/>
      <point x="103" y="357"/>
      <point x="103" y="331" type="curve" smooth="yes"/>
      <point x="103" y="58" type="line" smooth="yes"/>
      <point x="103" y="39"/>
      <point x="97" y="31"/>
      <point x="77" y="26" type="curve" smooth="yes"/>
      <point x="35" y="15" type="line"/>
    </contour>
  </outline>
</glyph>
<glyph name="o" format="2">
  <advance width="508"/>
  <unicode hex="006F"/>
  <anchor x="254" y="470" name="top"/>
  <outline>
    <contour>
      <point x="254" y="-8" type="curve" smooth="yes"/>
      <point x="379" y="-8"/>
      <point x="463" y="85"/>
      <point x="463" y="217" type="curve" smooth="yes"/>
      <point x="463" y="340"/>
      <point x="379" y="434"/>
      <point x="254" y="434" type="curve" smooth="yes"/>
      <point x="129" y="434"/>
      <point x="45" y="341"/>
      <point x="45" y="209" type="curve" smooth="yes"/>
      <point x="45" y="86"/>
      <point x="129" y="-8"/>
    </contour>
    <contour>
      <point x="255" y="16" type="curve" smooth="yes"/>
      <point x="170" y="16"/>
      <point x="121" y="95"/>
      <point x="121" y="220" type="curve" smooth="yes"/>
      <point x="121" y="342"/>
      <point x="170" y="410"/>
      <point x="253" y="410" type="curve" smooth="yes"/>
      <point x="338" y="410"/>
      <point x="387" y="331"/>
      <point x="387" y="206" type="curve" smooth="yes"/>
      <point x="387" y="84"/>
      <point x="338" y="16"/>
    </contour>
  </outline>
</glyph>
<glyph name="u" format="2">
  <advance width="526"/>
  <unicode hex="0075"/>
  <anchor x="396" y="-51" name="ogonek"/>
  <anchor x="242" y="470" name="top"/>
  <outline>
    <contour>
      <point x="224" y="-7" type="curve" smooth="yes"/>
      <point x="228" y="-7"/>
      <point x="234" y="-5"/>
      <point x="240" y="-2" type="curve"/>
      <point x="270" y="17"/>
      <point x="321" y="42"/>
      <point x="352" y="55" type="curve"/>
      <point x="377" y="55" type="line"/>
      <point x="350" y="154" type="line"/>
      <point x="350" y="95"/>
      <point x="307" y="46"/>
      <point x="249" y="46" type="curve" smooth="yes"/>
      <point x="186" y="46"/>
      <point x="149" y="81"/>
      <point x="149" y="145" type="curve" smooth="yes"/>
      <point x="149" y="370" type="line" smooth="yes"/>
      <point x="149" y="389"/>
      <point x="154" y="411"/>
      <point x="161" y="428" type="curve"/>
      <point x="152" y="434" type="line"/>
      <point x="109" y="427"/>
      <point x="64" y="422"/>
      <point x="15" y="422" type="curve"/>
      <point x="15" y="412" type="line"/>
      <point x="58" y="395" type="line" smooth="yes"/>
      <point x="75" y="388"/>
      <point x="82" y="381"/>
      <point x="82" y="355" type="curve" smooth="yes"/>
      <point x="82" y="132" type="line" smooth="yes"/>
      <point x="82" y="29"/>
      <point x="139" y="-7"/>
    </contour>
    <contour>
      <point x="373" y="-8" type="line"/>
      <point x="416" y="-3"/>
      <point x="458" y="3"/>
      <point x="501" y="5" type="curve"/>
      <point x="501" y="24" type="line"/>
      <point x="446" y="21"/>
      <point x="417" y="34"/>
      <point x="417" y="73" type="curve" smooth="yes"/>
      <point x="417" y="370" type="line" smooth="yes"/>
      <point x="417" y="389"/>
      <point x="422" y="411"/>
      <point x="429" y="428" type="curve"/>
      <point x="420" y="434" type="line"/>
      <point x="377" y="427"/>
      <point x="332" y="422"/>
      <point x="283" y="422" type="curve"/>
      <point x="283" y="412" type="line"/>
      <point x="326" y="395" type="line" smooth="yes"/>
      <point x="343" y="388"/>
      <point x="350" y="381"/>
      <point x="350" y="355" type="curve" smooth="yes"/>
      <point x="350" y="79" type="line"/>
      <point x="358" y="56" type="line"/>
      <point x="365" y="-4" type="line"/>
    </contour>
  </outline>
</glyph>
<glyph name="copyright" format="2">
  <advance width="755"/>
  <unicode hex="00A9"/>
  <outline>
    <contour>
      <point x="378" y="3" type="curve" smooth="yes"/>
      <point x="592" y="3"/>
      <point x="720" y="173"/>
      <point x="720" y="353" type="curve" smooth="yes"/>
      <point x="720" y="531"/>
      <point x="587" y="680"/>
      <point x="378" y="680" type="curve" smooth="yes"/>
      <point x="166" y="680"/>
      <point x="35" y="510"/>
      <point x="35" y="332" type="curve" smooth="yes"/>
      <point x="35" y="153"/>
      <point x="158" y="3"/>
    </contour>
    <contour>
      <point x="382" y="152" type="curve" smooth="yes"/>
      <point x="402" y="152"/>
      <point x="432" y="158"/>
      <point x="457" y="163" type="curve" smooth="yes"/>
      <point x="481" y="168"/>
      <point x="502" y="172"/>
      <point x="517" y="172" type="curve" smooth="yes"/>
      <point x="522" y="172" type="line"/>
      <point x="522" y="202"/>
      <point x="530" y="237"/>
      <point x="537" y="273" type="curve"/>
      <point x="516" y="273" type="line"/>
      <point x="487" y="196"/>
      <point x="441" y="180"/>
      <point x="382" y="180" type="curve" smooth="yes"/>
      <point x="300" y="180"/>
      <point x="259" y="245"/>
      <point x="259" y="348" type="curve" smooth="yes"/>
      <point x="259" y="448"/>
      <point x="305" y="514"/>
      <point x="382" y="514" type="curve" smooth="yes"/>
      <point x="455" y="514"/>
      <point x="498" y="467"/>
      <point x="516" y="419" type="curve"/>
      <point x="536" y="419" type="line"/>
      <point x="523" y="469"/>
      <point x="525" y="497"/>
      <point x="528" y="514" type="curve"/>
      <point x="527" y="516" type="line"/>
      <point x="520" y="514"/>
      <point x="514" y="513"/>
      <point x="507" y="513" type="curve" smooth="yes"/>
      <point x="492" y="513"/>
      <point x="480" y="517"/>
      <point x="465" y="522" type="curve" smooth="yes"/>
      <point x="445" y="529"/>
      <point x="420" y="538"/>
      <point x="380" y="538" type="curve" smooth="yes"/>
      <point x="277" y="538"/>
      <point x="184" y="460"/>
      <point x="184" y="346" type="curve" smooth="yes"/>
      <point x="184" y="237"/>
      <point x="264" y="152"/>
    </contour>
    <contour>
      <point x="380" y="32" type="curve" smooth="yes"/>
      <point x="207" y="32"/>
      <point x="75" y="150"/>
      <point x="75" y="335" type="curve" smooth="yes"/>
      <point x="75" y="498"/>
      <point x="205" y="652"/>
      <point x="377" y="652" type="curve" smooth="yes"/>
      <point x="549" y="652"/>
      <point x="681" y="521"/>
      <point x="681" y="349" type="curve" smooth="yes"/>
      <point x="681" y="167"/>
      <point x="550" y="32"/>
    </contour>
  </outline>
</glyph>
<glyph name="twosuperior" format="2">
  <advance width="316"/>
  <unicode hex="00B2"/>
  <outline>
    <contour>
      <point x="35" y="349" type="line"/>
      <point x="255" y="349" type="line"/>
      <point x="271" y="454" type="line"/>
      <point x="257" y="454" type="line"/>
      <point x="251" y="437" type="line" smooth="yes"/>
      <point x="241" y="414"/>
      <point x="236" y="410"/>
      <point x="214" y="410" type="curve" smooth="yes"/>
      <point x="93" y="410" type="line"/>
      <point x="81" y="366" type="line"/>
      <point x="141" y="423" type="line" smooth="yes"/>
      <point x="213" y="490"/>
      <point x="267" y="533"/>
      <point x="267" y="597" type="curve" smooth="yes"/>
      <point x="267" y="659"/>
      <point x="207" y="686"/>
      <point x="146" y="686" type="curve" smooth="yes"/>
      <point x="86" y="686"/>
      <point x="35" y="662"/>
      <point x="35" y="619" type="curve" smooth="yes"/>
      <point x="35" y="600"/>
      <point x="49" y="584"/>
      <point x="63" y="584" type="curve" smooth="yes"/>
      <point x="82" y="584"/>
      <point x="93" y="595"/>
      <point x="93" y="609" type="curve" smooth="yes"/>
      <point x="93" y="625"/>
      <point x="81" y="633"/>
      <point x="81" y="644" type="curve" smooth="yes"/>
      <point x="81" y="659"/>
      <point x="101" y="668"/>
      <point x="129" y="668" type="curve" smooth="yes"/>
      <point x="160" y="668"/>
      <point x="190" y="644"/>
      <point x="190" y="594" type="curve" smooth="yes"/>
      <point x="190" y="540"/>
      <point x="172" y="481"/>
      <point x="117" y="430" type="curve" smooth="yes"/>
      <point x="35" y="355" type="line"/>
    </contour>
  </outline>
</glyph>
<glyph name="ordmasculine" format="2">
  <advance width="375"/>
  <unicode hex="00BA"/>
  <outline>
    <contour>
      <point x="187" y="372" type="curve" smooth="yes"/>
      <point x="288" y="372"/>
      <point x="355" y="444"/>
      <point x="355" y="546" type="curve" smooth="yes"/>
      <point x="355" y="642"/>
      <point x="288" y="715"/>
      <point x="187" y="715" type="curve" smooth="yes"/>
      <point x="87" y="715"/>
      <point x="20" y="643"/>
      <point x="20" y="540" type="curve" smooth="yes"/>
      <point x="20" y="445"/>
      <point x="87" y="372"/>
    </contour>
    <contour>
      <point x="188" y="399" type="curve" smooth="yes"/>
      <point x="125" y="399"/>
      <point x="89" y="457"/>
      <point x="89" y="549" type="curve" smooth="yes"/>
      <point x="89" y="638"/>
      <point x="125" y="687"/>
      <point x="187" y="687" type="curve" smooth="yes"/>
      <point x="250" y="687"/>
      <point x="286" y="630"/>
      <point x="286" y="538" type="curve" smooth="yes"/>
      <point x="286" y="449"/>
      <point x="250" y="399"/>
    </contour>
  </outline>
</glyph>
<glyph name="Eth" format="2">
  <advance width="805"/>
  <unicode hex="00D0"/>
  <guideline x="40" y="549" angle="90"/>
  <outline>
    <contour>
      <point x="40" y="321" type="line"/>
      <point x="383" y="321" type="line"/>
      <point x="383" y="356" type="line"/>
      <point x="40" y="356" type="line"/>
    </contour>
    <component base="D"/>
  </outline>
</glyph>
<glyph name="ae" format="2">
  <advance width="712"/>
  <unicode hex="00E6"/>
  <outline>
    <contour>
      <point x="178" y="-7" type="curve" smooth="yes"/>
      <point x="224" y="-7"/>
      <point x="288" y="39"/>
      <point x="350" y="82" type="curve"/>
      <point x="375" y="105" type="line"/>
      <point x="375" y="297" type="line" smooth="yes"/>
      <point x="375" y="370"/>
      <point x="329" y="434"/>
      <point x="233" y="434" type="curve" smooth="yes"/>
      <point x="156" y="434"/>
      <point x="78" y="379"/>
      <point x="78" y="311" type="curve" smooth="yes"/>
      <point x="78" y="278"/>
      <point x="96" y="259"/>
      <point x="125" y="259" type="curve" smooth="yes"/>
      <point x="152" y="259"/>
      <point x="172" y="275"/>
      <point x="172" y="301" type="curve" smooth="yes"/>
      <point x="172" y="314"/>
      <point x="166" y="326"/>
      <point x="158" y="337" type="curve" smooth="yes"/>
      <point x="153" y="344"/>
      <point x="148" y="351"/>
      <point x="148" y="359" type="curve" smooth="yes"/>
      <point x="148" y="391"/>
      <point x="177" y="411"/>
      <point x="217" y="411" type="curve" smooth="yes"/>
      <point x="278" y="411"/>
      <point x="307" y="358"/>
      <point x="307" y="297" type="curve" smooth="yes"/>
      <point x="307" y="279" type="line" smooth="yes"/>
      <point x="307" y="252"/>
      <point x="297" y="239"/>
      <point x="265" y="227" type="curve" smooth="yes"/>
      <point x="74" y="158" type="line" smooth="yes"/>
      <point x="64" y="154"/>
      <point x="60" y="146"/>
      <point x="60" y="124" type="curve" smooth="yes"/>
      <point x="60" y="59"/>
      <point x="117" y="-7"/>
    </contour>
    <contour>
      <point x="206" y="41" type="curve" smooth="yes"/>
      <point x="175" y="41"/>
      <point x="132" y="82"/>
      <point x="132" y="121" type="curve" smooth="yes"/>
      <point x="132" y="142"/>
      <point x="135" y="151"/>
      <point x="143" y="154" type="curve" smooth="yes"/>
      <point x="300" y="213" type="line"/>
      <point x="304" y="215"/>
      <point x="308" y="212"/>
      <point x="308" y="208" type="curve" smooth="yes"/>
      <point x="308" y="116" type="line" smooth="yes"/>
      <point x="308" y="99"/>
      <point x="301" y="85"/>
      <point x="291" y="77" type="curve"/>
      <point x="262" y="56"/>
      <point x="233" y="41"/>
    </contour>
    <component base="e" xOffset="263"/>
  </outline>
</glyph>
<glyph name="thorn" format="2">
  <advance width="553"/>
  <unicode hex="00FE"/>
  <outline>
    <contour>
      <point x="37" y="-250" type="line"/>
      <point x="246" y="-250" type="line"/>
      <point x="246" y="-235" type="line"/>
      <point x="198" y="-224" type="line" smooth="yes"/>
      <point x="178" y="-219"/>
      <point x="172" y="-211"/>
      <point x="172" y="-192" type="curve" smooth="yes"/>
      <point x="172" y="25" type="line"/>
      <point x="197" y="7"/>
      <point x="244" y="-8"/>
      <point x="295" y="-8" type="curve" smooth="yes"/>
      <point x="440" y="-8"/>
      <point x="508" y="109"/>
      <point x="508" y="222" type="curve" smooth="yes"/>
      <point x="508" y="333"/>
      <point x="442" y="434"/>
      <point x="299" y="434" type="curve" smooth="yes"/>
      <point x="286" y="434"/>
      <point x="271" y="428"/>
      <point x="262" y="423" type="curve"/>
      <point x="173" y="378" type="line"/>
      <point x="171" y="378" type="line"/>
      <point x="173" y="602" type="line" smooth="yes"/>
      <point x="173" y="648"/>
      <point x="174" y="676"/>
      <point x="185" y="706" type="curve"/>
      <point x="176" y="712" type="line"/>
      <point x="131" y="689"/>
      <point x="83" y="678"/>
      <point x="35" y="668" type="curve"/>
      <point x="35" y="658" type="line"/>
      <point x="81" y="646" type="line" smooth="yes"/>
      <point x="99" y="641"/>
      <point x="105" y="632"/>
      <point x="105" y="606" type="curve" smooth="yes"/>
      <point x="105" y="-192" type="line" smooth="yes"/>
      <point x="105" y="-211"/>
      <point x="99" y="-219"/>
      <point x="79" y="-224" type="curve" smooth="yes"/>
      <point x="37" y="-235" type="line"/>
    </contour>
    <contour>
      <point x="297" y="18" type="curve" smooth="yes"/>
      <point x="230" y="18"/>
      <point x="170" y="78"/>
      <point x="170" y="153" type="curve" smooth="yes"/>
      <point x="170" y="294" type="line" smooth="yes"/>
      <point x="170" y="342"/>
      <point x="211" y="383"/>
      <point x="280" y="383" type="curve" smooth="yes"/>
      <point x="390" y="383"/>
      <point x="438" y="290"/>
      <point x="438" y="190" type="curve" smooth="yes"/>
      <point x="438" y="100"/>
      <point x="394" y="18"/>
    </contour>
  </outline>
</glyph>
<glyph name="Lslash" format="2">
  <advance width="704"/>
  <unicode hex="0141"/>
  <guideline x="40" y="338" angle="90"/>
  <outline>
    <contour>
      <point x="40" y="208" type="line"/>
      <point x="535" y="365" type="line"/>
      <point x="535" y="409" type="line"/>
      <point x="40" y="252" type="line"/>
    </contour>
    <component base="L"/>
  </outline>
</glyph>
<glyph name="longs" format="2">
  <advance width="285"/>
  <unicode hex="017F"/>
  <outline>
    <contour>
      <point x="35" y="0" type="line"/>
      <point x="244" y="0" type="line"/>
      <point x="244" y="15" type="line"/>
      <point x="196" y="26" type="line" smooth="yes"/>
      <point x="176" y="31"/>
      <point x="170" y="39"/>
      <point x="170" y="58" type="curve"/>
      <point x="170" y="492" type="line" smooth="yes"/>
      <point x="170" y="597"/>
      <point x="193" y="685"/>
      <point x="272" y="685" type="curve" smooth="yes"/>
      <point x="291" y="685"/>
      <point x="300" y="673"/>
      <point x="300" y="660" type="curve" smooth="yes"/>
      <point x="300" y="655"/>
      <point x="299" y="652"/>
      <point x="298" y="649" type="curve" smooth="yes"/>
      <point x="297" y="645"/>
      <point x="296" y="642"/>
      <point x="296" y="637" type="curve" smooth="yes"/>
      <point x="297" y="616"/>
      <point x="313" y="596"/>
      <point x="340" y="596" type="curve" smooth="yes"/>
      <point x="370" y="596"/>
      <point x="385" y="619"/>
      <point x="385" y="641" type="curve" smooth="yes"/>
      <point x="385" y="681"/>
      <point x="340" y="711"/>
      <point x="280" y="711" type="curve" smooth="yes"/>
      <point x="166" y="711"/>
      <point x="103" y="617"/>
      <point x="103" y="498" type="curve" smooth="yes"/>
      <point x="103" y="426" type="line"/>
      <point x="36" y="426" type="line"/>
      <point x="36" y="396" type="line"/>
      <point x="103" y="396" type="line"/>
      <point x="103" y="58" type="line" smooth="yes"/>
      <point x="103" y="39"/>
      <point x="97" y="31"/>
      <point x="77" y="26" type="curve" smooth="yes"/>
      <point x="35" y="15" type="line"/>
    </contour>
  </outline>
</glyph>
<glyph name="emdash" format="2">
  <advance width="1060"/>
  <unicode hex="2014"/>
  <outline>
    <contour>
      <point x="1060" y="230" type="line"/>
      <point x="1060" y="265" type="line"/>
      <point x="0" y="265" type="line"/>
      <point x="0" y="230" type="line"/>
    </contour>
  </outline>
</glyph>
<glyph name="perthousand" format="2">
  <advance width="933"/>
  <unicode hex="2030"/>
  <outline>
    <contour>
      <point x="766" y="-8" type="curve" smooth="yes"/>
      <point x="858" y="-8"/>
      <point x="898" y="69"/>
      <point x="898" y="162" type="curve" smooth="yes"/>
      <point x="898" y="256"/>
      <point x="858" y="329"/>
      <point x="766" y="329" type="curve" smooth="yes"/>
      <point x="675" y="329"/>
      <point x="636" y="256"/>
      <point x="636" y="162" type="curve" smooth="yes"/>
      <point x="636" y="69"/>
      <point x="675" y="-8"/>
    </contour>
    <contour>
      <point x="766" y="12" type="curve" smooth="yes"/>
      <point x="719" y="12"/>
      <point x="711" y="83"/>
      <point x="711" y="162" type="curve" smooth="yes"/>
      <point x="711" y="240"/>
      <point x="719" y="307"/>
      <point x="766" y="307" type="curve" smooth="yes"/>
      <point x="815" y="307"/>
      <point x="823" y="240"/>
      <point x="823" y="162" type="curve" smooth="yes"/>
      <point x="823" y="83"/>
      <point x="815" y="12"/>
    </contour>
    <component base="percent"/>
  </outline>
</glyph>
<glyph name="a.sc" format="2">
  <advance width="677"/>
  <anchor x="332" y="552" name="top"/>
  <outline>
    <contour>
      <point x="22" y="0" type="line"/>
      <point x="238" y="0" type="line"/>
      <point x="238" y="15" type="line"/>
      <point x="183" y="24" type="line" smooth="yes"/>
      <point x="163" y="27"/>
      <point x="152" y="33"/>
      <point x="152" y="46" type="curve" smooth="yes"/>
      <point x="152" y="51"/>
      <point x="155" y="58"/>
      <point x="158" y="66" type="curve" smooth="yes"/>
      <point x="325" y="451" type="line"/>
      <point x="307" y="451" type="line"/>
      <point x="460" y="82" type="line" smooth="yes"/>
      <point x="466" y="67"/>
      <point x="471" y="55"/>
      <point x="471" y="46" type="curve" smooth="yes"/>
      <point x="471" y="34"/>
      <point x="460" y="28"/>
      <point x="424" y="22" type="curve" smooth="yes"/>
      <point x="378" y="15" type="line"/>
      <point x="378" y="0" type="line"/>
      <point x="655" y="0" type="line"/>
      <point x="655" y="15" type="line"/>
      <point x="621" y="21" type="line" smooth="yes"/>
      <point x="587" y="27"/>
      <point x="567" y="39"/>
      <point x="547" y="86" type="curve" smooth="yes"/>
      <point x="342" y="558" type="line"/>
      <point x="335" y="558" type="line"/>
      <point x="335" y="542"/>
      <point x="317" y="510"/>
      <point x="282" y="508" type="curve"/>
      <point x="299" y="464" type="line"/>
      <point x="129" y="67" type="line" smooth="yes"/>
      <point x="118" y="41"/>
      <point x="100" y="27"/>
      <point x="62" y="21" type="curve" smooth="yes"/>
      <point x="22" y="14" type="line"/>
    </contour>
    <contour>
      <point x="209" y="183" type="line"/>
      <point x="449" y="183" type="line"/>
      <point x="449" y="209" type="line"/>
      <point x="203" y="209" type="line"/>
    </contour>
  </outline>
</glyph>
<glyph name="ae.sc" format="2">
  <advance width="892"/>
  <outline>
    <contour>
      <point x="22" y="0" type="line"/>
      <point x="238" y="0" type="line"/>
      <point x="238" y="14" type="line"/>
      <point x="185" y="24" type="line" smooth="yes"/>
      <point x="150" y="31"/>
      <point x="147" y="45"/>
      <point x="163" y="66" type="curve" smooth="yes"/>
      <point x="461" y="465" type="line"/>
      <point x="457" y="501" type="line"/>
      <point x="133" y="69" type="line" smooth="yes"/>
      <point x="114" y="44"/>
      <point x="90" y="25"/>
      <point x="52" y="19" type="curve" smooth="yes"/>
      <point x="22" y="14" type="line"/>
    </contour>
    <contour>
      <point x="245" y="183" type="line"/>
      <point x="458" y="183" type="line"/>
      <point x="458" y="208" type="line"/>
      <point x="245" y="208" type="line"/>
    </contour>
    <component base="e.sc" xOffset="299"/>
  </outline>
</glyph>
<glyph name="f_j" format="2">
  <advance width="515"/>
  <anchor x="311" y="0" name="caret_1"/>
  <anchor x="129" y="710" name="top_1"/>
  <anchor x="386" y="710" name="top_2"/>
  <outline>
    <contour>
      <point x="287" y="-249" type="curve" smooth="yes"/>
      <point x="347" y="-249"/>
      <point x="391" y="-202"/>
      <point x="420" y="-129" type="curve"/>
      <point x="422" y="-123"/>
      <point x="427" y="-118"/>
      <point x="435" y="-118" type="curve"/>
      <point x="435" y="328" type="line" smooth="yes"/>
      <point x="435" y="374"/>
      <point x="436" y="402"/>
      <point x="447" y="432" type="curve"/>
      <point x="438" y="438" type="line"/>
      <point x="393" y="426" type="line"/>
      <point x="170" y="426" type="line"/>
      <point x="170" y="465" type="line" smooth="yes"/>
      <point x="170" y="565"/>
      <point x="198" y="685"/>
      <point x="314" y="685" type="curve" smooth="yes"/>
      <point x="333" y="685"/>
      <point x="342" y="677"/>
      <point x="342" y="664" type="curve" smooth="yes"/>
      <point x="342" y="660"/>
      <point x="341" y="656"/>
      <point x="340" y="651" type="curve" smooth="yes"/>
      <point x="339" y="647"/>
      <point x="338" y="643"/>
      <point x="338" y="638" type="curve" smooth="yes"/>
      <point x="339" y="617"/>
      <point x="355" y="596"/>
      <point x="382" y="596" type="curve" smooth="yes"/>
      <point x="412" y="596"/>
      <point x="427" y="619"/>
      <point x="427" y="641" type="curve" smooth="yes"/>
      <point x="427" y="681"/>
      <point x="382" y="711"/>
      <point x="322" y="711" type="curve" smooth="yes"/>
      <point x="161" y="711"/>
      <point x="103" y="575"/>
      <point x="103" y="454" type="curve" smooth="yes"/>
      <point x="103" y="426" type="line"/>
      <point x="36" y="426" type="line"/>
      <point x="36" y="396" type="line"/>
      <point x="103" y="396" type="line"/>
      <point x="103" y="58" type="line" smooth="yes"/>
      <point x="103" y="39"/>
      <point x="97" y="31"/>
      <point x="77" y="26" type="curve" smooth="yes"/>
      <point x="35" y="15" type="line"/>
      <point x="35" y="0" type="line"/>
      <point x="244" y="0" type="line"/>
      <point x="244" y="15" type="line"/>
      <point x="196" y="26" type="line" smooth="yes"/>
      <point x="176" y="31"/>
      <point x="170" y="39"/>
      <point x="170" y="58" type="curve" smooth="yes"/>
      <point x="170" y="396" type="line"/>
      <point x="305" y="396" type="line"/>
      <point x="344" y="385" type="line" smooth="yes"/>
      <point x="362" y="380"/>
      <point x="368" y="371"/>
      <point x="368" y="345" type="curve" smooth="yes"/>
      <point x="368" y="-118" type="line" smooth="yes"/>
      <point x="368" y="-201"/>
      <point x="329" y="-214"/>
      <point x="319" y="-214" type="curve" smooth="yes"/>
      <point x="317" y="-214"/>
      <point x="316" y="-213"/>
      <point x="316" y="-211" type="curve" smooth="yes"/>
      <point x="316" y="-208"/>
      <point x="318" y="-204"/>
      <point x="318" y="-198" type="curve" smooth="yes"/>
      <point x="318" y="-171"/>
      <point x="296" y="-157"/>
      <point x="274" y="-157" type="curve" smooth="yes"/>
      <point x="251" y="-157"/>
      <point x="228" y="-171"/>
      <point x="228" y="-199" type="curve" smooth="yes"/>
      <point x="228" y="-224"/>
      <point x="246" y="-249"/>
    </contour>
  </outline>
</glyph>
<glyph name="g.sc" format="2">
  <advance width="714"/>
  <anchor x="363" y="552" name="top"/>
  <outline>
    <contour>
      <point x="354" y="-10" type="curve" smooth="yes"/>
      <point x="394" y="-10"/>
      <point x="432" y="-2"/>
      <point x="467" y="6" type="curve" smooth="yes"/>
      <point x="498" y="13"/>
      <point x="526" y="20"/>
      <point x="543" y="20" type="curve" smooth="yes"/>
      <point x="556" y="20"/>
      <point x="569" y="19"/>
      <point x="578" y="17" type="curve"/>
      <point x="582" y="19" type="line"/>
      <point x="582" y="172" type="line" smooth="yes"/>
      <point x="582" y="206"/>
      <point x="589" y="211"/>
      <point x="635" y="219" type="curve" smooth="yes"/>
      <point x="679" y="226" type="line"/>
      <point x="679" y="241" type="line"/>
      <point x="397" y="241" type="line"/>
      <point x="397" y="227" type="line"/>
      <point x="448" y="218" type="line" smooth="yes"/>
      <point x="494" y="210"/>
      <point x="502" y="204"/>
      <point x="502" y="170" type="curve" smooth="yes"/>
      <point x="502" y="62" type="line"/>
      <point x="468" y="30"/>
      <point x="405" y="9"/>
      <point x="354" y="9" type="curve" smooth="yes"/>
      <point x="204" y="9"/>
      <point x="138" y="155"/>
      <point x="138" y="271" type="curve" smooth="yes"/>
      <point x="138" y="403"/>
      <point x="234" y="525"/>
      <point x="357" y="525" type="curve" smooth="yes"/>
      <point x="470" y="525"/>
      <point x="556" y="442"/>
      <point x="583" y="374" type="curve"/>
      <point x="599" y="374" type="line"/>
      <point x="594" y="386"/>
      <point x="585" y="438"/>
      <point x="585" y="475" type="curve" smooth="yes"/>
      <point x="585" y="486"/>
      <point x="587" y="506"/>
      <point x="589" y="513" type="curve"/>
      <point x="588" y="514" type="line"/>
      <point x="584" y="513"/>
      <point x="569" y="510"/>
      <point x="556" y="510" type="curve" smooth="yes"/>
      <point x="506" y="510"/>
      <point x="465" y="545"/>
      <point x="357" y="545" type="curve" smooth="yes"/>
      <point x="203" y="545"/>
      <point x="56" y="432"/>
      <point x="56" y="270" type="curve" smooth="yes"/>
      <point x="56" y="110"/>
      <point x="179" y="-10"/>
    </contour>
  </outline>
</glyph>
<glyph name="oslash.sc" format="2">
  <advance width="713"/>
  <outline>
    <contour>
      <point x="80" y="-13" type="line"/>
      <point x="657" y="523" type="line"/>
      <point x="634" y="545" type="line"/>
      <point x="57" y="9" type="line"/>
    </contour>
    <component base="o.sc"/>
  </outline>
</glyph>
<glyph name="thorn.sc" format="2">
  <advance width="582"/>
  <outline>
    <contour>
      <point x="52" y="0" type="line"/>
      <point x="338" y="0" type="line"/>
      <point x="337" y="14" type="line"/>
      <point x="286" y="23" type="line" smooth="yes"/>
      <point x="240" y="31"/>
      <point x="233" y="37"/>
      <point x="233" y="70" type="curve" smooth="yes"/>
      <point x="233" y="415" type="line"/>
      <point x="305" y="415" type="line" smooth="yes"/>
      <point x="401" y="415"/>
      <point x="460" y="378"/>
      <point x="460" y="285" type="curve" smooth="yes"/>
      <point x="460" y="188"/>
      <point x="393" y="154"/>
      <point x="315" y="150" type="curve"/>
      <point x="314" y="144" type="line"/>
      <point x="396" y="122"/>
      <point x="547" y="166"/>
      <point x="547" y="285" type="curve" smooth="yes"/>
      <point x="547" y="374"/>
      <point x="456" y="434"/>
      <point x="318" y="434" type="curve" smooth="yes"/>
      <point x="233" y="434" type="line"/>
      <point x="233" y="468" type="line" smooth="yes"/>
      <point x="233" y="502"/>
      <point x="240" y="507"/>
      <point x="286" y="515" type="curve" smooth="yes"/>
      <point x="337" y="524" type="line"/>
      <point x="338" y="538" type="line"/>
      <point x="52" y="538" type="line"/>
      <point x="52" y="524" type="line"/>
      <point x="103" y="515" type="line" smooth="yes"/>
      <point x="150" y="507"/>
      <point x="157" y="502"/>
      <point x="157" y="468" type="curve" smooth="yes"/>
      <point x="157" y="70" type="line" smooth="yes"/>
      <point x="157" y="37"/>
      <point x="150" y="31"/>
      <point x="103" y="23" type="curve" smooth="yes"/>
      <point x="52" y="14" type="line"/>
    </contour>
  </outline>
</glyph>
<glyph name="x.sc" format="2">
  <advance width="695"/>
  <outline>
    <contour>
      <point x="26" y="0" type="line"/>
      <point x="261" y="0" type="line"/>
      <point x="261" y="14" type="line"/>
      <point x="204" y="25" type="line" smooth="yes"/>
      <point x="177" y="30"/>
      <point x="172" y="45"/>
      <point x="189" y="65" type="curve" smooth="yes"/>
      <point x="329" y="239" type="line"/>
      <point x="456" y="77" type="line" smooth="yes"/>
      <point x="485" y="40"/>
      <point x="475" y="29"/>
      <point x="430" y="22" type="curve" smooth="yes"/>
      <point x="385" y="15" type="line"/>
      <point x="385" y="0" type="line"/>
      <point x="669" y="0" type="line"/>
      <point x="669" y="15" type="line"/>
      <point x="644" y="19" type="line" smooth="yes"/>
      <point x="594" y="27"/>
      <point x="566" y="48"/>
      <point x="525" y="102" type="curve" smooth="yes"/>
      <point x="382" y="288" type="line"/>
      <point x="536" y="469" type="line" smooth="yes"/>
      <point x="560" y="498"/>
      <point x="590" y="514"/>
      <point x="629" y="519" type="curve" smooth="yes"/>
      <point x="665" y="524" type="line"/>
      <point x="665" y="538" type="line"/>
      <point x="430" y="538" type="line"/>
      <point x="430" y="524" type="line"/>
      <point x="488" y="513" type="line" smooth="yes"/>
      <point x="516" y="508"/>
      <point x="519" y="489"/>
      <point x="503" y="470" type="curve" smooth="yes"/>
      <point x="368" y="307" type="line"/>
      <point x="250" y="464" type="line" smooth="yes"/>
      <point x="223" y="500"/>
      <point x="237" y="510"/>
      <point x="284" y="517" type="curve" smooth="yes"/>
      <point x="330" y="524" type="line"/>
      <point x="330" y="538" type="line"/>
      <point x="46" y="538" type="line"/>
      <point x="46" y="523" type="line"/>
      <point x="71" y="519" type="line" smooth="yes"/>
      <point x="119" y="511"/>
      <point x="139" y="495"/>
      <point x="162" y="464" type="curve" smooth="yes"/>
      <point x="315" y="258" type="line"/>
      <point x="156" y="66" type="line" smooth="yes"/>
      <point x="133" y="38"/>
      <point x="103" y="24"/>
      <point x="63" y="19" type="curve" smooth="yes"/>
      <point x="26" y="14" type="line"/>
    </contour>
  </outline>
</glyph>
